<?xml version="1.0" encoding="utf-8"?>
<!-- Generator: Adobe Illustrator 21.0.2, SVG Export Plug-In . SVG Version: 6.00 Build 0)  -->
<svg version="1.1" id="Layer_1" xmlns="http://www.w3.org/2000/svg" xmlns:xlink="http://www.w3.org/1999/xlink" x="0px" y="0px"
	 viewBox="0 0 481.6 171.4" style="enable-background:new 0 0 481.6 171.4;" xml:space="preserve">
<style type="text/css">
	.st0{fill:#FF0033;}
</style>
<g>
	<polygon class="st0" points="342.1,129.1 342.9,133.6 423.8,133.6 423.8,169.2 458.6,169.2 458.6,133.6 481.6,133.6 481.6,129.1 	
		"/>
	<path class="st0" d="M481.6,107.6v-3.7h-22.3V1.5h-31.2l-91.3,106.1H481.6z M423.8,103.9h-44.5l44.5-51.9V103.9z"/>
</g>
<g>
	<path class="st0" d="M144,107.6v-3.7h-22.3V1.5H90.5L0,107.6H144z M86.8,103.9H42.3l44.5-51.9V103.9z"/>
	<polygon class="st0" points="5.2,129.1 5.9,133.6 86.8,133.6 86.8,169.2 121.7,169.2 121.7,133.6 144,133.6 144,129.1 	"/>
</g>
<g>
	<path class="st0" d="M210,107.6c-1.5-6.7-3-13.4-3-21.5c0-31.2,14.1-52.7,36.4-52.7c21.5,0,36.4,23,36.4,52.7
		c0,7.4-0.7,14.8-2.2,21.5h37.8c1.5-6.7,2.2-14.1,2.2-21.5c0-49-29.7-86.1-73.5-86.1C199.6,0,170,37.8,170,86.1
		c0,7.4,0.7,14.8,2.2,21.5H210z"/>
	<path class="st0" d="M265.7,129.1c-5.9,5.9-13.4,9.6-21.5,9.6c-8.9,0-16.3-3.7-22.3-9.6h-43c11.9,26,34.9,42.3,64.6,42.3
		s52.7-17.1,64.6-42.3C308,129.1,265.7,129.1,265.7,129.1z"/>
</g>
<g>
	<path class="st0" d="M68.6,118.1c0-2.4,1.8-4.3,4.2-4.3c1.5,0,2.4,0.6,3.3,1.4l-0.6,0.7c-0.7-0.7-1.5-1.2-2.6-1.2
		c-1.9,0-3.3,1.5-3.3,3.5c0,1.9,1.4,3.5,3.3,3.5c1.2,0,1.9-0.4,2.7-1.2l0.6,0.7c-0.9,0.9-1.8,1.4-3.4,1.4
		C70.4,122.4,68.6,120.5,68.6,118.1z"/>
	<path class="st0" d="M90.9,114.7h-2.8v-0.9h6.6v0.9h-2.8v7.5h-1V114.7z"/>
	<path class="st0" d="M107.2,113.9h3.1c1.9,0,3.1,1,3.1,2.7c0,1.8-1.5,2.7-3.3,2.7h-2v3h-0.9V113.9z M110.3,118.4
		c1.4,0,2.3-0.7,2.3-1.9c0-1.2-0.9-1.8-2.3-1.8h-2.1v3.7H110.3z"/>
	<path class="st0" d="M128.3,113.8h0.9l3.8,8.5h-1l-1-2.2h-4.6l-1,2.2h-1L128.3,113.8z M130.7,119.2l-1.9-4.3l-1.9,4.3H130.7z"/>
	<path class="st0" d="M145.5,113.9h0.9v3.7h4.8v-3.7h0.9v8.4h-0.9v-3.8h-4.8v3.8h-0.9V113.9z"/>
	<path class="st0" d="M165.4,113.9h0.9v7l5-7h0.9v8.4h-0.9v-7l-5,7h-0.9V113.9z"/>
	<path class="st0" d="M192.3,122.3h-6.8v-8.4h0.9v7.5h4.8v-7.5h0.9v7.5h1.1l-0.1,2.7h-0.8V122.3z"/>
	<path class="st0" d="M208.5,113.8h0.9l3.8,8.5h-1l-1-2.2h-4.6l-1,2.2h-1L208.5,113.8z M210.9,119.2l-1.9-4.3l-1.9,4.3H210.9z"/>
	<path class="st0" d="M240.1,113.9h0.9v3.7h4.8v-3.7h0.9v8.4h-0.9v-3.8h-4.8v3.8h-0.9V113.9z"/>
	<path class="st0" d="M260,113.9h6.1v0.9H261v2.9h4.6v0.9H261v2.9h5.2v0.9H260V113.9z"/>
	<path class="st0" d="M293.3,113.9h0.9v3.7h4.8v-3.7h0.9v8.4h-0.9v-3.8h-4.8v3.8h-0.9V113.9z"/>
	<path class="st0" d="M316.3,113.8h0.9l3.8,8.5h-1l-1-2.2h-4.6l-1,2.2h-1L316.3,113.8z M318.6,119.2l-1.9-4.3l-1.9,4.3H318.6z"/>
	<path class="st0" d="M333.5,113.9h0.9v7l5-7h0.9v8.4h-0.9v-7l-5,7h-0.9V113.9z M335.3,111.7l0.6-0.1c0.1,0.5,0.5,0.8,1.1,0.8
		c0.6,0,0.9-0.3,1.1-0.8l0.6,0.1c-0.1,0.9-0.8,1.5-1.7,1.5C336.1,113.2,335.4,112.5,335.3,111.7z"/>
	<path class="st0" d="M352.5,121.4h0.9c0.8-1.3,1.3-3.3,1.3-6.1v-1.5h5.5v7.5h1.1l-0.1,2.7h-0.8v-1.9h-6.8l-0.2,1.9h-0.8V121.4z
		 M359.1,121.4v-6.7h-3.6v1.1c0,2.2-0.4,4.4-1.1,5.6H359.1z"/>
	<path class="st0" d="M373.4,113.9h6.1v0.9h-5.1v2.9h4.6v0.9h-4.6v2.9h5.2v0.9h-6.1V113.9z"/>
	<path class="st0" d="M392.2,113.9h0.9v3.7h4.8v-3.7h0.9v8.4H398v-3.8h-4.8v3.8h-0.9V113.9z"/>
	<path class="st0" d="M415.2,113.8h0.9l3.8,8.5h-1l-1-2.2h-4.6l-1,2.2h-1L415.2,113.8z M417.6,119.2l-1.9-4.3l-1.9,4.3H417.6z"/>
</g>
</svg>
