<?xml version="1.0" encoding="utf-8"?>
<!-- Generator: Adobe Illustrator 21.0.0, SVG Export Plug-In . SVG Version: 6.00 Build 0)  -->
<svg version="1.1" id="Layer_3" xmlns="http://www.w3.org/2000/svg" xmlns:xlink="http://www.w3.org/1999/xlink" x="0px" y="0px"
	 viewBox="0 0 142.5 155.5" style="enable-background:new 0 0 142.5 155.5;" xml:space="preserve">
<style type="text/css">
	.st0{fill:none;stroke:#2897C5;stroke-width:4;stroke-linecap:round;stroke-linejoin:round;stroke-miterlimit:10;}
	.st1{fill:none;stroke:#D91D50;stroke-width:4;stroke-linecap:round;stroke-linejoin:round;stroke-miterlimit:10;}
</style>
<g>
	<g>
		<polyline class="st0" points="93.3,47.5 93.3,54.3 93.3,76 121.8,76 		"/>
		<polygon class="st0" points="51.6,47.5 51.6,135.1 121.8,135.1 121.8,76 93.3,47.5 		"/>
	</g>
	<g>
		<path class="st1" d="M41.2,96.2c-2.3-1.5-4.2-3.7-5.3-6.5c-3.2-7.5,0.3-16.2,7.8-19.4c7.5-3.2,16.2,0.3,19.4,7.8
			c1.2,2.7,1.4,5.6,1,8.3"/>
		<line class="st1" x1="57.7" y1="81.5" x2="100.1" y2="114.9"/>
		<line class="st1" x1="36.8" y1="141.9" x2="42" y2="88.2"/>
		<line class="st1" x1="43.7" y1="70.3" x2="35.6" y2="51.5"/>
		<line class="st1" x1="34.7" y1="123" x2="87.8" y2="100.3"/>
	</g>
</g>
<circle class="st0" cx="43.7" cy="34.5" r="4"/>
<circle class="st0" cx="40.7" cy="8.5" r="1"/>
<circle class="st0" cx="22.7" cy="46.5" r="1"/>
</svg>
