<?xml version="1.0" encoding="utf-8"?>
<!-- Generator: Adobe Illustrator 21.0.0, SVG Export Plug-In . SVG Version: 6.00 Build 0)  -->
<svg version="1.1" id="Layer_2" xmlns="http://www.w3.org/2000/svg" xmlns:xlink="http://www.w3.org/1999/xlink" x="0px" y="0px"
	 viewBox="0 0 142.5 155.5" style="enable-background:new 0 0 142.5 155.5;" xml:space="preserve">
<style type="text/css">
	.st0{opacity:0.45;fill:#2897C5;}
	
		.st1{fill:none;stroke:#D91D50;stroke-width:4;stroke-linecap:round;stroke-linejoin:round;stroke-miterlimit:10;stroke-dasharray:3,8;}
	.st2{fill:none;stroke:#2897C5;stroke-width:4;stroke-linecap:round;stroke-linejoin:round;stroke-miterlimit:10;}
	.st3{fill:none;stroke:#44668C;stroke-width:4;stroke-linecap:round;stroke-linejoin:round;stroke-miterlimit:10;}
	.st4{fill:none;stroke:#D91D50;stroke-width:4;stroke-linecap:round;stroke-linejoin:round;stroke-miterlimit:10;}
</style>
<g>
	<polygon class="st0" points="65.8,133.8 71.2,136.9 116.9,110.5 116.9,57.8 91.9,43.3 	"/>
</g>
<line class="st1" x1="53.3" y1="147.5" x2="92.8" y2="15.5"/>
<line class="st2" x1="48.7" y1="78" x2="48.7" y2="89.1"/>
<polyline class="st2" points="55.5,66.2 72.1,56.6 74.4,57.9 "/>
<polyline class="st3" points="84.4,63.7 95.5,70.1 95.5,97.1 72.1,110.7 69.4,109.1 "/>
<line class="st2" x1="55.6" y1="101.1" x2="60.3" y2="103.9"/>
<line class="st2" x1="26.4" y1="65.9" x2="26.4" y2="101.6"/>
<line class="st2" x1="64.1" y1="35.5" x2="33.1" y2="53.3"/>
<line class="st4" x1="79" y1="34.9" x2="81.1" y2="36"/>
<polyline class="st3" points="90.5,41.5 117.8,57.2 117.8,110 72.1,136.4 64.1,131.8 "/>
<line class="st2" x1="33.1" y1="113.9" x2="53.6" y2="125.7"/>
<line class="st3" x1="95.5" y1="70.1" x2="117.8" y2="57.2"/>
<line class="st2" x1="33.6" y1="61.4" x2="41.4" y2="65.9"/>
<line class="st3" x1="72.1" y1="110.7" x2="72.1" y2="136.4"/>
<line class="st3" x1="95.5" y1="97.1" x2="77.5" y2="87.2"/>
<line class="st2" x1="55.6" y1="93.2" x2="66.8" y2="87"/>
<line class="st2" x1="72.1" y1="56.6" x2="72.1" y2="66.7"/>
<g>
	<circle class="st2" cx="26.4" cy="57.9" r="8"/>
	<circle class="st4" cx="26.4" cy="57.9" r="1"/>
</g>
<g>
	<circle class="st2" cx="72.1" cy="30.9" r="8"/>
	<circle class="st4" cx="72.1" cy="30.9" r="1"/>
</g>
<g>
	<circle class="st2" cx="26.4" cy="109.6" r="8"/>
	<circle class="st4" cx="26.4" cy="109.6" r="1"/>
</g>
<g>
	<circle class="st2" cx="48.7" cy="97.1" r="8"/>
	<circle class="st4" cx="48.7" cy="97.1" r="1"/>
</g>
<g>
	<circle class="st2" cx="48.4" cy="70" r="8"/>
	<circle class="st4" cx="48.4" cy="70" r="1"/>
</g>
</svg>
