<?xml version="1.0" encoding="utf-8"?>
<!-- Generator: Adobe Illustrator 21.0.0, SVG Export Plug-In . SVG Version: 6.00 Build 0)  -->
<svg version="1.1" id="Layer_2" xmlns="http://www.w3.org/2000/svg" xmlns:xlink="http://www.w3.org/1999/xlink" x="0px" y="0px"
	 viewBox="0 0 142.5 155.5" style="enable-background:new 0 0 142.5 155.5;" xml:space="preserve">
<style type="text/css">
	.st0{fill:none;stroke:#D91D50;stroke-width:4;stroke-linecap:round;stroke-linejoin:round;stroke-miterlimit:10;}
</style>
<g>
	<path class="st0" d="M71.3,108.4c-5.4-5.7-10.9-13-15.8-21.5c-0.4-0.7-0.9-1.5-1.3-2.2"/>
	<path class="st0" d="M91.9,77.7c9.4,19.8,11.2,37.6,3.6,42c-4.6,2.7-11.9-0.2-19.7-7"/>
	<path class="st0" d="M71.3,47.1c5.4,5.7,10.9,13,15.8,21.5c0.5,0.8,1,1.7,1.4,2.5"/>
	<path class="st0" d="M45,37.4c0.6-0.7,1.2-1.2,2-1.7c4.7-2.7,11.9,0.2,19.8,7.1"/>
	<path class="st0" d="M43.1,55.6c1.2,6.6,3.8,14.2,7.5,22.2"/>
	<path class="st0" d="M61.2,59.5C73.6,41.7,88,31.4,95.5,35.7c4.7,2.7,5.8,10.4,3.7,20.6"/>
	<path class="st0" d="M44.7,93.2c2.2-7.6,5.8-16,10.7-24.5c0.6-1,1.2-2.1,1.8-3.1"/>
	<path class="st0" d="M51.6,120.7c-1.7,0.1-3.3-0.2-4.6-1c-4.6-2.7-5.7-10.4-3.8-20.5"/>
	<path class="st0" d="M97.8,62.4c-2.2,7.5-5.8,16-10.7,24.4c-0.6,1-1.2,2-1.8,3"/>
	<path class="st0" d="M68.2,111.3c4.4-4.1,9-9.5,13.3-15.7"/>
	<path class="st0" d="M45,62.4c7.7-1.9,16.3-2.9,26.2-2.9c1.2,0,2.4,0,3.5,0"/>
	<path class="st0" d="M60.2,95.5c-21.5-1.9-37.5-9.1-37.5-17.8c0-5.4,6.1-10.2,15.9-13.5"/>
	<path class="st0" d="M97.8,93.1c-7.6,1.9-16.7,3-26.5,3c-1,0-2,0-3,0"/>
	<path class="st0" d="M103.4,91.4c10-3.3,16.3-8.2,16.3-13.7c0-1.3-0.4-2.6-1.1-3.8"/>
	<path class="st0" d="M81.6,59.9c8.1,0.7,15.4,2.1,21.5,4"/>
</g>
<circle class="st0" cx="42.3" cy="46.1" r="4"/>
<circle class="st0" cx="60.2" cy="116.8" r="4"/>
<circle class="st0" cx="112.1" cy="67.1" r="4"/>
<circle class="st0" cx="71.3" cy="79.4" r="1"/>
</svg>
