<?xml version="1.0" encoding="utf-8"?>
<!-- Generator: Adobe Illustrator 21.0.0, SVG Export Plug-In . SVG Version: 6.00 Build 0)  -->
<svg version="1.1" id="Layer_2" xmlns="http://www.w3.org/2000/svg" xmlns:xlink="http://www.w3.org/1999/xlink" x="0px" y="0px"
	 viewBox="0 0 142.5 155.5" style="enable-background:new 0 0 142.5 155.5;" xml:space="preserve">
<style type="text/css">
	.st0{fill:none;stroke:#D91D50;stroke-width:4;stroke-linecap:round;stroke-linejoin:round;stroke-miterlimit:10;}
</style>
<path class="st0" d="M80.2,84.8h-18V37.9c0-4.4,4.5-15.1,8.9-15.1h0.2c4.4,0,8.9,10.8,8.9,15.1V84.8z"/>
<path class="st0" d="M61.2,105.8h20c0-5-4.5-10-10-10C65.7,95.8,61.2,100.8,61.2,105.8z"/>
<path class="st0" d="M62.2,60.8c0,14.1-13,10-13,24h13"/>
<path class="st0" d="M80.2,60.8c0,14.1,13,10,13,24h-13"/>
<path class="st0" d="M51.2,95.8L51.2,95.8h-16V41.9c0-4.4,3.5-12.1,7.9-12.1h0.2c4.4,0,7.9,7.8,7.9,12.1v30.9"/>
<path class="st0" d="M91.2,84.8v11h-40c0,0,0-6.1,0-11"/>
<path class="st0" d="M51.2,76.8V39c0-14.9,13.7-25,20-25l0,0c6.7,0,20,10.1,20,25v37.7"/>
<path class="st0" d="M91.2,72.8V41.9c0-4.4,3.5-12.1,7.9-12.1h0.2c4.4,0,7.9,7.8,7.9,12.1v53.9h-16l0,0"/>
<path class="st0" d="M67.2,39c0-2.2,1.8-4,4-4s4,1.8,4,4"/>
<line class="st0" x1="35.2" y1="49.8" x2="51.2" y2="49.8"/>
<line class="st0" x1="91.2" y1="49.8" x2="107.2" y2="49.8"/>
<path class="st0" d="M47.2,102.8h-8V100c0-2.2,1.8-4,4-4l0,0c2.2,0,4,1.8,4,4V102.8z"/>
<path class="st0" d="M103.2,102.8h-8V100c0-2.2,1.8-4,4-4l0,0c2.2,0,4,1.8,4,4V102.8z"/>
<circle class="st0" cx="81.2" cy="117.8" r="1"/>
<circle class="st0" cx="63.9" cy="117.8" r="1"/>
<circle class="st0" cx="72.2" cy="135.8" r="1"/>
</svg>
