<?xml version="1.0" encoding="utf-8"?>
<!-- Generator: Adobe Illustrator 21.0.0, SVG Export Plug-In . SVG Version: 6.00 Build 0)  -->
<svg version="1.1" id="Layer_3" xmlns="http://www.w3.org/2000/svg" xmlns:xlink="http://www.w3.org/1999/xlink" x="0px" y="0px"
	 viewBox="0 0 142.5 155.5" style="enable-background:new 0 0 142.5 155.5;" xml:space="preserve">
<style type="text/css">
	.st0{fill:none;stroke:#2897C5;stroke-width:4;stroke-linecap:round;stroke-linejoin:round;stroke-miterlimit:10;}
	.st1{fill:none;stroke:#D91D50;stroke-width:4;stroke-linecap:round;stroke-linejoin:round;stroke-miterlimit:10;}
</style>
<ellipse transform="matrix(0.9446 -0.3281 0.3281 0.9446 -26.6349 20.3408)" class="st0" cx="47" cy="89.1" rx="1" ry="1"/>
<ellipse transform="matrix(0.9446 -0.3281 0.3281 0.9446 -40.6014 21.1667)" class="st0" cx="42.4" cy="130.9" rx="1" ry="1"/>
<ellipse transform="matrix(0.9446 -0.3281 0.3281 0.9446 -2.6006 33.7276)" class="st0" cx="98.7" cy="24.6" rx="1" ry="1"/>
<ellipse transform="matrix(0.9446 -0.3281 0.3281 0.9446 -11.2482 25.5665)" class="st0" cx="70.1" cy="46.1" rx="1" ry="1"/>
<ellipse transform="matrix(0.9446 -0.3281 0.3281 0.9446 -12.7653 36.6434)" class="st0" cx="102.2" cy="56.2" rx="1" ry="1"/>
<line class="st1" x1="120.8" y1="99.4" x2="112.8" y2="71.5"/>
<line class="st1" x1="117" y1="107.7" x2="91" y2="118.3"/>
<line class="st1" x1="85.4" y1="116" x2="72.3" y2="88.7"/>
<line class="st1" x1="74.9" y1="81.2" x2="107.7" y2="69"/>
<line class="st1" x1="66.5" y1="78.2" x2="53.9" y2="57.3"/>
<line class="st1" x1="43.4" y1="53" x2="22.1" y2="54.4"/>
<ellipse transform="matrix(0.9446 -0.3281 0.3281 0.9446 -33.7413 25.3747)" class="st0" cx="58.3" cy="112.7" rx="4" ry="4"/>
<ellipse transform="matrix(0.9446 -0.3281 0.3281 0.9446 -27.7496 45.9959)" class="st0" cx="122.4" cy="105.2" rx="6" ry="6"/>
<ellipse transform="matrix(0.9446 -0.3281 0.3281 0.9446 -23.5397 27.3715)" class="st0" cx="69.3" cy="83.4" rx="6" ry="6"/>
<ellipse transform="matrix(0.9446 -0.3281 0.3281 0.9446 -14.767 19.1475)" class="st0" cx="49.4" cy="53.3" rx="6" ry="6"/>
<ellipse transform="matrix(0.9446 -0.3281 0.3281 0.9446 -16.0504 40.3415)" class="st0" cx="111.5" cy="67.7" rx="4" ry="4"/>
<ellipse transform="matrix(0.9446 -0.3281 0.3281 0.9446 -16.9394 8.9546)" class="st0" cx="18.1" cy="54.7" rx="4" ry="4"/>
<ellipse transform="matrix(0.9446 -0.3281 0.3281 0.9446 -34.4111 35.2282)" class="st0" cx="87.2" cy="119.6" rx="4" ry="4"/>
<circle class="st0" cx="120.5" cy="-6.7" r="1"/>
</svg>
