<?xml version="1.0" encoding="utf-8"?>
<!-- Generator: Adobe Illustrator 21.0.0, SVG Export Plug-In . SVG Version: 6.00 Build 0)  -->
<svg version="1.1" id="Layer_3" xmlns="http://www.w3.org/2000/svg" xmlns:xlink="http://www.w3.org/1999/xlink" x="0px" y="0px"
	 viewBox="0 0 142.5 155.5" style="enable-background:new 0 0 142.5 155.5;" xml:space="preserve">
<style type="text/css">
	.st0{fill:none;stroke:#D91D50;stroke-width:4;stroke-linecap:round;stroke-linejoin:round;stroke-miterlimit:10;}
	.st1{fill:none;stroke:#2897C5;stroke-width:4;stroke-linecap:round;stroke-linejoin:round;stroke-miterlimit:10;}
</style>
<path class="st0" d="M101.1,60.3c2.9,0.2,5.4,0.7,7.5,1.3c3.6,1.1,6,2.9,6.6,5.3"/>
<path class="st0" d="M32.8,58.4c2.3-1.1,5.4-1.7,9-2"/>
<ellipse transform="matrix(0.9655 -0.2605 0.2605 0.9655 -17.6332 20.9695)" class="st1" cx="70.3" cy="77" rx="35" ry="35"/>
<circle class="st1" cx="108.3" cy="39" r="8"/>
<circle class="st1" cx="90.3" cy="34" r="3"/>
<path class="st1" d="M43.4,75.1c0.1-1.5,0.3-2.9,0.7-4.3"/>
<path class="st1" d="M46.7,63.9c3.4-6.1,9.2-10.9,16.5-12.9"/>
<path class="st0" d="M108.6,61.7c3.6,1.1,6,2.9,6.6,5.3c2.2,8-16,19.8-40.5,26.5s-46.2,5.5-48.3-2.5c-0.6-2.2,0.4-4.8,2.7-7.4"/>
<path class="st0" d="M111.5,85c2.8,3.7,3.9,7.2,2.8,10.1c-3.3,8.8-25.2,8.7-49-0.2c-23.8-8.9-40.4-23.2-37.1-32
	c0.7-1.9,2.3-3.4,4.7-4.5"/>
</svg>
