<?xml version="1.0" encoding="utf-8"?>
<!-- Generator: Adobe Illustrator 21.0.0, SVG Export Plug-In . SVG Version: 6.00 Build 0)  -->
<svg version="1.1" id="Layer_1" xmlns="http://www.w3.org/2000/svg" xmlns:xlink="http://www.w3.org/1999/xlink" x="0px" y="0px"
	 viewBox="0 0 142.5 155.5" style="enable-background:new 0 0 142.5 155.5;" xml:space="preserve">
<style type="text/css">
	.st0{fill:none;stroke:#D91D50;stroke-width:4;stroke-linecap:round;stroke-linejoin:round;stroke-miterlimit:10;}
	
		.st1{fill:none;stroke:#D91D50;stroke-width:4;stroke-linecap:round;stroke-linejoin:round;stroke-miterlimit:10;stroke-dasharray:3,8;}
</style>
<g>
	<circle class="st0" cx="80.5" cy="103.6" r="18.5"/>
	<line class="st1" x1="80.5" y1="84.1" x2="80.5" y2="12.1"/>
	<line class="st1" x1="125.3" y1="129.4" x2="97.3" y2="112.4"/>
	<line class="st1" x1="14.4" y1="142.9" x2="64" y2="113.4"/>
	<line class="st0" x1="76.1" y1="105.7" x2="80.5" y2="103.6"/>
	<line class="st0" x1="80.5" y1="103.6" x2="80.5" y2="98.8"/>
	<line class="st0" x1="84.8" y1="105.7" x2="80.5" y2="103.6"/>
	<polyline class="st0" points="12.7,151.6 3.3,150.8 4.1,141.8 	"/>
	<polyline class="st0" points="129.3,139.6 138.7,138.7 137.9,129.7 	"/>
	<polyline class="st0" points="87,9.7 80.1,3.2 73.9,9.8 	"/>
</g>
<circle class="st0" cx="100.9" cy="139.6" r="4"/>
<circle class="st0" cx="60.9" cy="38.7" r="1"/>
<circle class="st0" cx="53.8" cy="60.7" r="1"/>
<circle class="st0" cx="126.9" cy="83.5" r="1"/>
<circle class="st0" cx="16.7" cy="81.2" r="4"/>
</svg>
