<?xml version="1.0" encoding="utf-8"?>
<!-- Generator: Adobe Illustrator 21.0.0, SVG Export Plug-In . SVG Version: 6.00 Build 0)  -->
<svg version="1.1" id="Layer_3" xmlns="http://www.w3.org/2000/svg" xmlns:xlink="http://www.w3.org/1999/xlink" x="0px" y="0px"
	 viewBox="0 0 142.5 155.5" style="enable-background:new 0 0 142.5 155.5;" xml:space="preserve">
<style type="text/css">
	.st0{fill:none;stroke:#2897C5;stroke-width:4;stroke-linecap:round;stroke-linejoin:round;stroke-miterlimit:10;}
	.st1{fill:none;stroke:#D91D50;stroke-width:4;stroke-linecap:round;stroke-linejoin:round;stroke-miterlimit:10;}
</style>
<circle class="st0" cx="89.2" cy="32.8" r="1"/>
<ellipse transform="matrix(1 -2.927260e-03 2.927260e-03 1 -0.1247 0.3112)" class="st0" cx="106.2" cy="42.8" rx="11" ry="11"/>
<path class="st1" d="M77.6,48.1c0,0-9.5,2.6-6,10.4s7.6,7,5.6,14.1v0c0-0.1-0.2-0.2-0.4-0.3c0,0-7.8-5.1-17.3-0.7s-8,16.4-3.1,17.7
	c4,1,6.3,2.6,7,6.2c0.6,3.2,0.7,11,3.7,14.3c2.5,2.7,9.5,4.7,13.3-4.3c2.7-6.3,5.2-17.8,2.7-25.8h0c14.1,2,19.3-2.1,19.3-2.1"/>
<path class="st1" d="M38.1,55.8c0,0,8.2,4.8,3.7,13.8s-7.5,9.2-8,16.5c-0.5,6.5,9.7,18-0.5,22.5"/>
<circle class="st0" cx="64.2" cy="84.8" r="39"/>
</svg>
