<?xml version="1.0" encoding="utf-8"?>
<!-- Generator: Adobe Illustrator 20.1.0, SVG Export Plug-In . SVG Version: 6.00 Build 0)  -->
<svg version="1.1" id="Layer_1" xmlns="http://www.w3.org/2000/svg" xmlns:xlink="http://www.w3.org/1999/xlink" x="0px" y="0px"
	 viewBox="0 0 95 56.3" style="enable-background:new 0 0 95 56.3;" xml:space="preserve">
<style type="text/css">
	.st0{fill:#FFFFFF;}
	.st1{fill:#E40031;}
</style>
<g>
	<path class="st0" d="M8.1,19.7v7h3.8v1.3H8.1V38H6.3V18.4h5.9v1.3H8.1z"/>
</g>
<g>
	<path class="st0" d="M18.7,38V18.4h1.8V38H18.7z"/>
</g>
<g>
	<path class="st0" d="M30.8,19.7V38H29V19.7h-2.1v-1.3H33v1.3H30.8z"/>
</g>
<g>
	<path class="st0" d="M42.9,18.4c1.9,0,2.7,0.4,2.7,2.2v5c0,1-0.4,1.8-1.5,2c1.3,0.2,1.6,1.1,1.6,2.1V38H44v-8.4c0-1-0.3-1.3-1-1.3
		h-1.8V38h-1.8V18.4H42.9z M41.2,27h1.7c0.7,0,1-0.4,1-1.3v-4.7c0-1-0.3-1.3-1.1-1.3h-1.6L41.2,27z"/>
</g>
<g>
	<path class="st0" d="M81.9,37.9l-2.8-14.8v14.8h-1.8V18.3h2.1l2.8,14.8V18.3H84v19.6H81.9z"/>
</g>
<g>
	<path class="st0" d="M61.8,17.7c-5.7,0-10.3,4.6-10.3,10.3s4.6,10.3,10.3,10.3c5.7,0,10.3-4.6,10.3-10.3S67.5,17.7,61.8,17.7z
		 M61.8,33.7c-3.1,0-5.7-2.5-5.7-5.7c0-3.1,2.5-5.7,5.7-5.7c3.1,0,5.7,2.5,5.7,5.7C67.5,31.1,65,33.7,61.8,33.7z"/>
</g>
<path class="st1" d="M57.1,37.1l-8.6,19.2h1.8l8.3-18.6C58.1,37.6,57.6,37.4,57.1,37.1z"/>
<path class="st1" d="M72.6,0L59,32.9c0.5,0.3,1,0.5,1.5,0.6L74.4,0H72.6z"/>
</svg>
