<?xml version="1.0" encoding="utf-8"?>
<!-- Generator: Adobe Illustrator 20.1.0, SVG Export Plug-In . SVG Version: 6.00 Build 0)  -->
<svg version="1.1" id="Layer_1" xmlns="http://www.w3.org/2000/svg" xmlns:xlink="http://www.w3.org/1999/xlink" x="0px" y="0px"
	 viewBox="0 0 168.1 342.5" style="enable-background:new 0 0 168.1 342.5;" xml:space="preserve">
<style type="text/css">
	.st0{fill:#FFFFFF;}
	.st1{fill:#E40031;}
</style>
<g>
	<path class="st0" d="M3.6,112.7v13.9h7.5v2.7H3.6V149H0l0-39h11.8v2.7H3.6z"/>
</g>
<g>
	<path class="st0" d="M24.6,149v-39h3.6v39H24.6z"/>
</g>
<g>
	<path class="st0" d="M48.7,112.7V149h-3.6v-36.3h-4.3v-2.7H53v2.7H48.7z"/>
</g>
<g>
	<path class="st0" d="M72.8,110.1c3.7,0,5.5,0.9,5.5,4.4v10c0,2-0.9,3.6-3,3.9c2.6,0.3,3.2,2.3,3.2,4.2V149h-3.6v-16.6
		c0-1.9-0.5-2.5-2-2.6h-3.5V149h-3.6v-39H72.8z M69.4,127.2h3.4c1.5-0.1,2-0.7,2-2.6v-9.3c0-2-0.5-2.6-2.2-2.6h-3.1L69.4,127.2z"/>
</g>
<g>
	<path class="st0" d="M150.3,148.8l-5.6-29.5v29.5h-3.6v-39h4.1l5.6,29.5v-29.5h3.6v39H150.3z"/>
</g>
<g>
	<path class="st0" d="M110.4,108.7c-11.3,0-20.4,9.2-20.4,20.4c0,11.3,9.2,20.4,20.4,20.4c11.3,0,20.4-9.2,20.4-20.4
		C130.9,117.8,121.7,108.7,110.4,108.7z M110.4,140.4c-6.2,0-11.3-5-11.3-11.3c0-6.2,5-11.3,11.3-11.3c6.2,0,11.3,5,11.3,11.3
		C121.7,135.3,116.7,140.4,110.4,140.4z"/>
</g>
<g>
	<path class="st1" d="M101,147.3L16.1,342.5h3.6l84.4-194C103,148.2,102,147.8,101,147.3z"/>
	<path class="st1" d="M165.1,0l-60.4,138.8c0.9,0.6,1.9,1,3,1.2L168.1,1.3L165.1,0z"/>
</g>
</svg>
