<?xml version="1.0" encoding="utf-8"?>
<!-- Generator: Adobe Illustrator 21.0.2, SVG Export Plug-In . SVG Version: 6.00 Build 0)  -->
<svg version="1.1" id="Capa_1" xmlns="http://www.w3.org/2000/svg" xmlns:xlink="http://www.w3.org/1999/xlink" x="0px" y="0px"
	 viewBox="0 0 133 113" style="enable-background:new 0 0 133 113;" xml:space="preserve">
<style type="text/css">
	.st0{fill:#bcbcbc;}
</style>
<g>
	<path class="st0" d="M77.8,5.4c-3,0-5.9,0.3-8.8,0.8c22.6,4.1,39.7,23.9,39.7,47.7s-17.1,43.6-39.7,47.7c2.8,0.5,5.8,0.8,8.8,0.8
		c26.8,0,48.5-21.7,48.5-48.5C126.3,27.1,104.6,5.4,77.8,5.4z"/>
	<g>
		<path class="st0" d="M52.9,30.7h-9.1v24.7h9.1c9.9,0,14.7-4,14.7-12.2C67.6,34.9,62.7,30.7,52.9,30.7z"/>
		<path class="st0" d="M50,6.9C24,6.9,3,28,3,53.9c0,25.9,21,47,47,47c25.9,0,47-21,47-47C96.9,28,75.9,6.9,50,6.9z M52.9,62.2h-9.1
			v3.9h9.1V73h-9.1v7.6h-6.9V73H32v-6.9h4.9v-3.9H32v-6.9h4.9V23.8h16c13.5,0,21.6,7.2,21.6,19.4C74.5,55.3,66.6,62.2,52.9,62.2z"/>
	</g>
</g>
</svg>
