<?xml version="1.0" encoding="utf-8"?>
<!-- Generator: Adobe Illustrator 16.0.0, SVG Export Plug-In . SVG Version: 6.00 Build 0)  -->
<!DOCTYPE svg PUBLIC "-//W3C//DTD SVG 1.1//EN" "http://www.w3.org/Graphics/SVG/1.1/DTD/svg11.dtd">
<svg version="1.1" id="Слой_1" xmlns="http://www.w3.org/2000/svg" xmlns:xlink="http://www.w3.org/1999/xlink" x="0px" y="0px"
	 width="1045.445px" height="575.238px" viewBox="0 0 1045.445 575.238" enable-background="new 0 0 1045.445 575.238"
	 xml:space="preserve">
<g>
	<path fill="#ED193B" d="M849.122,554.531l189.65-245.936c8.897-11.538,8.897-30.417,0-41.955L849.123,20.706
		c-8.896-11.538-16.177-20.854-16.177-20.704c-0.001,0.149-11.921,0.272-26.49,0.273H26.492c-14.569,0-26.489,11.92-26.49,26.49
		L0,548.474c0.001,14.568,11.922,26.489,26.491,26.491l779.964-0.003c14.57,0,26.492,0.124,26.492,0.274
		C832.946,575.387,840.225,566.068,849.122,554.531z M831.679,345.462c-31.946-0.001-57.844-25.899-57.844-57.843
		c0.001-31.945,25.898-57.842,57.842-57.844c31.945,0.001,57.843,25.898,57.842,57.842
		C889.521,319.564,863.624,345.462,831.679,345.462z"/>
	<path fill="#ED193B" d="M880.2,287.618c0-26.798-21.724-48.522-48.522-48.522c-26.799-0.001-48.523,21.725-48.522,48.522
		c0.001,26.799,21.725,48.522,48.522,48.522S880.199,314.417,880.2,287.618z M793.642,287.617
		c-0.001-21.007,17.028-38.036,38.036-38.037c21.007,0.001,38.036,17.03,38.035,38.039c0.001,21.006-17.029,38.036-38.036,38.035
		C810.67,325.654,793.641,308.625,793.642,287.617z"/>
</g>
<g>
	<g>
		<path fill="#FFFFFF" d="M345.621,255.418c-19.299,21.471-44.025,32.202-74.181,32.202c-30.155,0-54.684-10.625-73.577-31.892
			c-18.904-21.258-28.346-47.576-28.346-78.955c0-31.368,9.649-57.686,28.949-78.955c19.299-21.257,44.025-31.891,74.18-31.891
			c30.155,0,54.675,10.634,73.578,31.891c18.894,21.269,28.345,47.586,28.345,78.955
			C374.569,207.736,364.92,233.958,345.621,255.418z M211.734,504.357L519.916,70.881h71.768L283.502,504.357H211.734z
			 M272.646,231.267c12.062,0,21.505-5.263,28.346-15.791c6.832-10.527,10.252-23.425,10.252-38.703
			c0-14.861-3.722-27.653-11.157-38.393c-7.444-10.73-16.99-16.101-28.647-16.101c-12.062,0-21.514,5.168-28.346,15.482
			c-6.841,10.324-10.252,23.328-10.252,39.012c0,14.863,3.712,27.663,11.157,38.394C251.434,225.907,260.98,231.267,272.646,231.267
			z M604.951,477.111c-19.299,21.47-44.025,32.199-74.18,32.199c-30.156,0-54.684-10.623-73.579-31.89
			c-18.903-21.259-28.345-47.576-28.345-78.956c0-31.369,9.649-57.687,28.948-78.953c19.299-21.259,44.025-31.892,74.181-31.892
			c30.155,0,54.673,10.633,73.577,31.892c18.893,21.267,28.346,47.584,28.346,78.953C633.9,429.428,624.25,455.65,604.951,477.111z
			 M531.978,452.96c12.06,0,21.503-5.265,28.345-15.791c6.832-10.526,10.254-23.425,10.254-38.704
			c0-14.863-3.723-27.654-11.158-38.393c-7.445-10.731-16.99-16.101-28.646-16.101c-12.062,0-21.515,5.167-28.346,15.481
			c-6.842,10.324-10.254,23.327-10.254,39.012c0,14.862,3.715,27.663,11.158,38.395C510.765,447.6,520.312,452.96,531.978,452.96z"
			/>
	</g>
</g>
</svg>
