<?xml version="1.0" encoding="utf-8"?>
<!-- Generator: Adobe Illustrator 21.0.0, SVG Export Plug-In . SVG Version: 6.00 Build 0)  -->
<svg version="1.1" id="Capa_1" xmlns="http://www.w3.org/2000/svg" xmlns:xlink="http://www.w3.org/1999/xlink" x="0px" y="0px"
	 viewBox="0 0 160 154" style="enable-background:new 0 0 160 154;" xml:space="preserve">
<style type="text/css">
	.st0{fill:#CB82FF;}
</style>
<g>
	<g>
		<path class="st0" d="M116.2,86.3C161.4,41.2,156,6.5,155.8,5c-0.1-0.6-0.5-1-1.1-1.2c-0.1,0-2.4-0.5-6.4-0.5
			c-12.4,0-38.1,4.4-71,33.7C71.6,42.1,66.4,47.2,62,52.3l-23.4,4.2c-0.3,0.1-0.6,0.2-0.8,0.4L20,75.6c-0.3,0.3-0.5,0.8-0.3,1.3
			c0.1,0.5,0.4,0.8,0.9,1l23,8.4c-1.4,7.9-0.1,13.1,0.7,15.2l-8.9,8.2c-0.3,0.3-0.4,0.6-0.5,1c0,0.4,0.1,0.8,0.4,1l6.7,7.1
			c0.5,0.5,1.3,0.6,1.9,0.1l9-7.4c3.6,2.5,8,3.6,13,3.4l6.8,23.4c0.1,0.4,0.5,0.8,0.9,0.9c0.1,0.1,0.3,0.1,0.4,0.1
			c0.3,0,0.7-0.1,0.9-0.3l19.8-16.5c0.2-0.2,0.4-0.4,0.5-0.7l6.5-23.2C110.1,92.3,116.2,86.4,116.2,86.3z M85.3,59.1
			c0-7.9,6.4-14.2,14.2-14.2s14.2,6.4,14.2,14.2s-6.4,14.2-14.2,14.2S85.3,67,85.3,59.1z"/>
		<path class="st0" d="M20.9,148.5c-0.4,0.4-0.5,0.9-0.3,1.4c0.2,0.5,0.7,0.8,1.2,0.8l0,0h12.9l0,0c0.3,0,0.6-0.1,0.9-0.3l15.3-14.7
			c0.3-0.3,0.5-0.8,0.3-1.3l-3.2-9.6c-0.1-0.4-0.5-0.7-0.9-0.8c-0.4-0.1-0.9,0-1.2,0.3L20.9,148.5z"/>
		<path class="st0" d="M4.2,142.4c-0.2,0.2-0.3,0.7-0.3,1v6c0,0.7,0.5,1.3,1.3,1.3h1.3h4.1l0,0c0.3,0,0.7-0.1,0.9-0.4L36.2,125
			c0.4-0.5,0.5-1.2,0.1-1.7l-5.6-6.8c-0.2-0.3-0.5-0.8-0.9-0.8h0c-0.3,0-0.7,0.5-0.9,0.8L4.2,142.4z"/>
		<path class="st0" d="M3.9,120.4v12.2c0,0.5,0.3,1,0.8,1.2c0.2,0.1,0.3,0.1,0.5,0.1c0.3,0,0.7-0.1,0.9-0.4l25.3-25
			c0.3-0.3,0.4-0.7,0.4-1c-0.1-0.4-0.3-0.7-0.6-0.9l-7.3-4.6c-0.5-0.3-1.1-0.2-1.5,0.2L4.2,119.5C4,119.7,3.9,120,3.9,120.4z"/>
	</g>
</g>
</svg>
