<?xml version="1.0" encoding="utf-8"?>
<!-- Generator: Adobe Illustrator 21.0.0, SVG Export Plug-In . SVG Version: 6.00 Build 0)  -->
<svg version="1.1" id="iconmonstr" xmlns="http://www.w3.org/2000/svg" xmlns:xlink="http://www.w3.org/1999/xlink" x="0px" y="0px"
	 viewBox="0 0 24 24" style="enable-background:new 0 0 24 24;" xml:space="preserve">
<style type="text/css">
	.st0{fill:#FFFFFF;}
</style>
<path id="time-12" class="st0" d="M22,14c0,5.5-4.5,10-10,10C6.5,24,2,19.5,2,14S6.5,4,12,4C17.5,4,22,8.5,22,14z M20,14
	c0-4.4-3.6-8-8-8c-4.4,0-8,3.6-8,8s3.6,8,8,8C16.4,22,20,18.4,20,14z M14,2.2V0h-4v2.2C11.4,1.9,12.6,1.9,14,2.2z M20.7,5.7L22,4.4
	L20.6,3l-1.4,1.4C19.7,4.8,20.2,5.3,20.7,5.7z M12,8v6h6C18,10.7,15.3,8,12,8z"/>
</svg>
