<?xml version="1.0" encoding="utf-8"?>
<!-- Generator: Adobe Illustrator 21.0.0, SVG Export Plug-In . SVG Version: 6.00 Build 0)  -->
<svg version="1.1" id="Capa_1" xmlns="http://www.w3.org/2000/svg" xmlns:xlink="http://www.w3.org/1999/xlink" x="0px" y="0px"
	 viewBox="0 0 154.7 156" style="enable-background:new 0 0 154.7 156;" xml:space="preserve">
<style type="text/css">
	.st0{fill:#BCBCBC;}
</style>
<path class="st0" d="M150.5,77.3l-69.3,43.1c-1.1,6.8-3.9,13.3-8.5,18.9L14.4,84.8c5.7-5.3,12.5-8.6,19.6-10L77.7,4.5
	c1.6-2.5,4.9-3.3,7.4-1.7s3.3,4.9,1.7,7.4L46.9,74.4c6.6,0.9,13.1,3.4,18.7,7.6l63-63c2.1-2.1,5.5-2.1,7.6,0s2.1,5.5,0,7.6l-63,62.9
	c4.3,5.5,6.9,11.8,7.9,18.3l63.7-39.6c2.5-1.6,5.8-0.8,7.4,1.7C153.7,72.4,153,75.7,150.5,77.3z M13.4,142.3
	c14,14,35.8,15.4,51.4,4.3L7.6,93.1C-1.9,108.5,0,129,13.4,142.3z"/>
</svg>
